<svg xmlns="http://www.w3.org/2000/svg" width="28.031" height="39" viewBox="0 0 28.031 39">
  <g id="Icon_ionic-ios-trash" data-name="Icon ionic-ios-trash" transform="translate(-8.297 -4.5)">
    <path id="Path_1" data-name="Path 1" d="M9.359,9l2.4,29.524A2.973,2.973,0,0,0,14.731,41.5h14.32a2.973,2.973,0,0,0,2.976-2.976L34.394,9Zm6.256,26.914-.68-23.664h1.879l.7,23.664Zm7.14,0H20.927V12.25h1.828Zm5.312,0H26.177l.691-23.664h1.879Z" transform="translate(0.472 2)" fill="rgb(65, 65, 65)"/>
    <path id="Path_2" data-name="Path 2" d="M33.281,7.344H29.625L26.954,5.008A2.059,2.059,0,0,0,25.613,4.5H19.032a2.091,2.091,0,0,0-1.361.508L15,7.344H11.344C9.556,7.344,8.3,8.2,8.3,9.984H36.328C36.328,8.2,35.069,7.344,33.281,7.344Z" fill="rgb(65, 65, 65)"/>
  </g>
</svg>
